<svg xmlns="http://www.w3.org/2000/svg" width="128" height="128" viewBox="0 0 128 128" aria-labelledby="title desc" role="img">
  <title id="title">Nua — gentle care icon</title>
  <desc id="desc">A soft droplet with a leaf curve and a lowercase "n" monogram representing comfort and natural care.</desc>
  <defs>
    <linearGradient id="g" x1="0" x2="1" y1="0" y2="1">
      <stop offset="0" stop-color="#FF9DB7"></stop>
      <stop offset="1" stop-color="#FF6F9A"></stop>
    </linearGradient>
    <filter id="s" x="-20%" y="-20%" width="140%" height="140%">
      <feDropShadow dx="0" dy="4" stdDeviation="6" flood-color="#F2B3C6" flood-opacity="0.35"></feDropShadow>
    </filter>
  </defs>

  <!-- Soft rounded badge -->
  <g filter="url(#s)">
    <rect x="6" y="6" width="116" height="116" rx="24" fill="url(#g)"></rect>
  </g>

  <!-- Droplet shape -->
  <path d="M64 26
           C64 26 50 46 50 62
           C50 76 61 88 64 92
           C67 88 78 76 78 62
           C78 46 64 26 64 26 Z" fill="#FFF5F7" opacity="0.98"></path>

  <!-- Leaf curve accent -->
  <path d="M60 36
           C54 46 52 56 56 66
           C60 76 68 78 76 68" fill="none" stroke="#FF6F9A" stroke-width="3.5" stroke-linecap="round" stroke-linejoin="round" opacity="0.9"></path>

  <!-- Lowercase 'n' monogram -->
  <path d="M50 78
           v-18
           c0-6 5-10 12-10
           c6 0 10 3 12 8
           v20" fill="none" stroke="#FF3B73" stroke-width="5.5" stroke-linecap="round" stroke-linejoin="round"></path>

  <!-- small sparkle to add friendly feel -->
  <g transform="translate(92,32)">
    <path d="M0 -6 L1.7 -1 L6 -1 L2.2 1.2 L4 6 L0 3 L-4 6 L-2.2 1.2 L-6 -1 L-1.7 -1 Z" fill="#FFF5F7" opacity="0.9" transform="scale(1.1)"></path>
  </g>
</svg>
